<!DOCTYPE svg PUBLIC "-//W3C//DTD SVG 20010904//EN" "http://www.w3.org/TR/2001/REC-SVG-20010904/DTD/svg10.dtd">
<svg version="1.0" xmlns="http://www.w3.org/2000/svg" width="1023px" height="158px" viewBox="0 0 10230 1580" preserveAspectRatio="xMidYMid meet">
<g id="layer101" fill="#3a3a3a" stroke="none">
 <path d="M2333 1498 c-25 -12 -27 -17 -15 -36 7 -10 19 -10 60 -1 40 10 58 10 78 1 43 -20 27 -44 -43 -67 -34 -11 -70 -28 -79 -37 -24 -24 -22 -75 5 -101 18 -19 33 -22 95 -22 41 0 77 3 81 7 13 12 -6 50 -22 44 -40 -16 -89 -17 -108 -2 -31 23 -9 47 61 68 94 28 118 75 65 129 -27 26 -36 29 -93 28 -35 0 -73 -5 -85 -11z"/>
 <path d="M2694 1458 c108 -245 98 -228 131 -228 29 0 33 5 67 83 20 45 48 108 62 140 l26 57 -31 0 c-25 0 -33 -6 -42 -30 -11 -29 -13 -30 -83 -30 -71 0 -72 0 -83 30 -8 24 -16 30 -40 30 l-31 0 24 -52z m175 -60 c0 -7 -11 -35 -23 -63 l-23 -50 -17 39 c-9 22 -19 50 -22 63 -6 22 -3 23 40 23 30 0 46 -4 45 -12z"/>
 <path d="M3180 1395 l0 -115 -45 0 c-41 0 -45 -2 -45 -25 l0 -25 120 0 120 0 0 25 c0 23 -4 25 -45 25 l-45 0 0 115 0 115 -30 0 -30 0 0 -115z"/>
 <path d="M3550 1395 l0 -115 -45 0 c-41 0 -45 -2 -45 -25 l0 -25 120 0 120 0 0 25 c0 23 -4 25 -45 25 l-45 0 0 115 0 115 -30 0 -30 0 0 -115z"/>
 <path d="M3824 1478 c99 -233 108 -248 140 -248 30 1 33 4 93 140 l61 140 -29 0 c-22 0 -32 -7 -44 -30 -15 -29 -18 -30 -84 -30 -67 0 -69 1 -81 30 -10 24 -19 30 -41 30 -29 0 -29 0 -15 -32z m186 -77 c0 -5 -11 -33 -24 -62 l-24 -54 -21 48 c-31 71 -29 77 24 77 25 0 45 -4 45 -9z"/>
 <path d="M4270 1369 l0 -140 27 3 c22 2 36 18 75 83 26 44 52 80 58 80 6 0 32 -36 58 -80 39 -65 53 -81 75 -83 l27 -3 0 140 0 141 -30 0 -29 0 -3 -85 -3 -85 -41 67 c-22 37 -47 69 -55 70 -8 2 -30 -25 -54 -64 l-40 -68 -3 83 -3 82 -29 0 -30 0 0 -141z"/>
 <path d="M4803 1370 c60 -136 63 -139 93 -140 32 0 41 15 140 248 l14 32 -30 0 c-25 0 -33 -5 -41 -30 -11 -30 -12 -30 -83 -30 -70 0 -72 1 -83 30 -9 24 -17 30 -41 30 l-30 0 61 -140z m133 17 c-3 -13 -13 -41 -22 -63 l-17 -39 -23 50 c-32 71 -31 75 22 75 43 0 46 -1 40 -23z"/>
 <path d="M5250 1395 l0 -115 -45 0 c-41 0 -45 -2 -45 -25 l0 -25 120 0 120 0 0 25 c0 23 -4 25 -45 25 l-45 0 0 115 0 115 -30 0 -30 0 0 -115z"/>
 <path d="M5560 1370 l0 -140 30 0 30 0 0 67 0 67 68 -67 c52 -52 74 -67 97 -67 l29 0 -40 43 c-83 89 -82 74 -14 160 l60 77 -34 0 c-28 0 -40 -8 -72 -47 -20 -27 -41 -52 -45 -57 -17 -19 -49 25 -49 66 0 36 -2 38 -30 38 l-30 0 0 -140z"/>
 <path d="M5933 1498 c3 -7 31 -71 63 -141 56 -126 58 -128 87 -125 29 3 34 11 89 132 32 71 58 133 58 138 0 4 -13 8 -28 8 -22 0 -30 -7 -39 -30 -11 -29 -13 -30 -81 -30 -68 0 -70 1 -82 30 -10 24 -19 30 -42 30 -20 0 -28 -4 -25 -12z m191 -110 c-4 -13 -15 -41 -24 -63 l-18 -40 -24 55 c-14 30 -23 58 -21 63 2 4 24 7 49 7 42 0 45 -1 38 -22z"/>
 <path d="M6391 1492 c-12 -23 4 -52 29 -52 25 0 41 30 29 53 -13 22 -46 22 -58 -1z"/>
 <path d="M6681 1492 c-93 -50 -93 -194 0 -244 42 -22 110 -23 155 -2 94 45 100 188 11 243 -44 27 -119 28 -166 3z m147 -59 c31 -34 30 -96 -3 -128 -56 -56 -155 -18 -155 60 0 48 15 74 53 90 40 17 76 10 105 -22z"/>
 <path d="M7090 1370 l0 -140 70 0 c115 0 163 30 163 101 0 30 -7 47 -27 68 l-26 27 30 42 30 42 -32 0 c-27 -1 -38 -8 -60 -40 -24 -34 -33 -40 -63 -40 -34 0 -35 1 -35 40 0 36 -2 40 -25 40 l-25 0 0 -140z m166 -15 c15 -23 15 -27 0 -50 -14 -21 -24 -25 -66 -25 l-50 0 0 50 0 50 50 0 c42 0 52 -4 66 -25z"/>
 <path d="M7553 1490 c-44 -27 -65 -62 -65 -113 -1 -56 19 -95 62 -125 30 -20 44 -23 97 -20 74 5 115 31 88 57 -12 13 -19 13 -35 3 -11 -6 -39 -12 -63 -12 -58 0 -92 34 -92 91 0 63 44 96 123 91 19 -2 22 -7 22 -47 0 -43 1 -45 30 -45 30 0 30 1 30 55 0 50 -2 56 -30 70 -42 22 -128 19 -167 -5z"/>
 <path d="M1620 1380 l0 -50 160 0 160 0 0 50 0 50 -160 0 -160 0 0 -50z"/>
 <path d="M8090 1380 l0 -50 160 0 160 0 0 50 0 50 -160 0 -160 0 0 -50z"/>
 <path d="M5956 730 c-71 -138 -131 -248 -134 -246 -4 5 -51 395 -52 433 0 12 7 29 16 37 14 15 8 16 -63 16 -74 -1 -77 -1 -47 -14 17 -8 34 -21 37 -30 4 -9 26 -151 49 -316 23 -165 45 -300 48 -300 3 0 47 82 99 183 51 100 116 224 144 276 l50 94 142 -282 141 -283 46 312 c48 324 54 344 102 353 11 2 -21 5 -73 6 -84 1 -93 -1 -76 -13 19 -14 19 -18 -10 -250 -16 -130 -32 -236 -35 -236 -10 0 -241 474 -240 493 0 9 -3 17 -7 17 -5 0 -66 -113 -137 -250z"/>
 <path d="M6596 963 c42 -8 74 -62 202 -338 71 -154 132 -289 136 -299 3 -10 8 -17 10 -15 2 2 63 137 136 299 131 290 162 345 204 353 11 2 -26 5 -84 6 -97 1 -103 0 -82 -15 29 -20 28 -29 -10 -124 l-33 -80 -144 2 -143 3 -33 79 c-35 84 -35 113 -1 126 13 6 -15 8 -79 8 -55 0 -90 -3 -79 -5z m464 -247 c0 -17 -117 -283 -125 -283 -9 0 -125 258 -125 278 0 5 56 9 125 9 69 0 125 -2 125 -4z"/>
 <path d="M7460 963 c8 -3 23 -12 33 -21 15 -14 17 -42 17 -309 l0 -293 -101 0 c-95 0 -135 9 -151 34 -4 6 -8 -5 -8 -24 l0 -35 258 3 c156 3 273 0 295 -6 l37 -10 -1 61 c-1 45 -3 54 -8 32 -9 -45 -41 -55 -156 -53 l-100 3 -3 265 c-2 146 0 280 3 298 5 25 14 37 38 47 30 13 26 14 -68 14 -55 0 -93 -3 -85 -6z"/>
 <path d="M7947 963 c50 -10 53 -27 53 -316 0 -279 -3 -301 -43 -317 -15 -6 8 -9 73 -9 65 0 88 3 73 9 -40 16 -43 38 -43 317 0 289 3 306 53 316 12 2 -25 4 -83 4 -58 0 -95 -2 -83 -4z"/>
 <path d="M8436 960 c-15 -5 -42 -19 -60 -31 -28 -20 -189 -190 -243 -257 l-22 -27 119 -140 c66 -77 119 -145 120 -152 0 -7 -8 -17 -17 -22 -13 -8 10 -10 82 -10 64 1 89 4 70 8 -16 4 -39 14 -50 21 -21 14 -248 255 -253 269 -3 8 254 294 291 323 29 23 98 23 126 1 16 -14 232 -459 297 -612 9 -21 26 12 148 282 76 168 148 315 160 325 11 11 30 22 41 25 11 3 -27 5 -85 6 -97 1 -103 0 -82 -15 29 -20 28 -34 -9 -126 l-31 -78 -143 0 -142 0 -32 75 c-37 89 -38 109 -9 129 21 15 12 16 -112 15 -74 0 -148 -5 -164 -9z m584 -246 c0 -13 -113 -285 -120 -289 -6 -4 -130 273 -130 289 0 4 56 6 125 6 69 0 125 -3 125 -6z"/>
 <path d="M4693 950 c-17 -4 -48 -17 -68 -29 -34 -20 -49 -21 -256 -21 l-219 0 0 -25 c0 -14 5 -25 10 -25 6 0 10 -108 10 -305 l0 -305 120 0 120 0 0 -40 0 -40 125 0 125 0 14 -34 c16 -39 42 -56 85 -56 35 0 91 43 91 71 0 18 9 19 155 19 l155 0 0 40 0 40 110 0 110 0 0 125 c0 118 1 125 20 125 19 0 20 -7 20 -135 0 -90 -4 -142 -12 -155 -16 -24 0 -55 27 -55 27 0 43 31 27 55 -8 13 -12 64 -12 150 0 117 2 134 21 159 36 49 4 91 -68 91 l-25 0 4 150 4 150 -217 0 c-180 0 -219 3 -229 15 -29 35 -165 55 -247 35z m156 -50 c118 -17 115 -51 -5 -70 -75 -12 -195 0 -222 22 -22 18 8 39 69 48 76 11 86 11 158 0z m-269 -390 l0 -200 -175 0 -175 0 0 200 0 200 175 0 175 0 0 -200z m360 0 l0 -200 -170 0 -170 0 0 200 0 200 170 0 170 0 0 -200z m370 0 l0 -200 -170 0 -170 0 0 200 0 200 170 0 170 0 0 -200z"/>
 <path d="M4330 589 c0 -17 21 -52 47 -81 l25 -27 -37 -7 c-30 -5 -41 -3 -50 10 -21 29 -35 18 -35 -28 l0 -43 100 2 c55 1 103 5 106 7 3 3 -5 21 -16 41 -11 19 -23 58 -27 86 l-6 51 -53 0 c-32 0 -54 -4 -54 -11z"/>
 <path d="M4704 584 c3 -9 6 -20 6 -26 0 -6 16 -25 35 -43 l35 -33 -42 -7 c-32 -6 -44 -4 -53 9 -22 29 -35 18 -35 -28 l0 -45 100 4 c56 1 103 5 106 8 3 3 -4 22 -15 43 -12 21 -24 60 -27 86 l-7 48 -54 0 c-46 0 -54 -3 -49 -16z"/>
 <path d="M5074 584 c3 -9 6 -20 6 -24 0 -5 16 -25 35 -44 l34 -34 -41 -7 c-32 -6 -44 -4 -53 9 -22 29 -35 18 -35 -28 l0 -45 100 4 c56 1 103 5 106 8 3 3 -4 23 -15 46 -12 23 -24 61 -28 86 l-6 45 -54 0 c-46 0 -54 -3 -49 -16z"/>
 </g>
<g id="layer102" fill="#ff2b2b" stroke="none">
 <path d="M1088 970 c-14 -4 -40 -16 -57 -26 -28 -16 -31 -23 -30 -64 1 -25 4 -56 8 -70 7 -23 8 -21 14 15 19 115 124 167 227 112 71 -37 98 -115 66 -190 -8 -18 -67 -81 -135 -142 -124 -113 -161 -163 -161 -222 0 -71 45 -143 107 -169 34 -15 112 -18 176 -8 l37 7 0 51 c0 47 -1 49 -13 27 -59 -115 -247 -73 -251 57 -1 58 15 81 138 193 136 124 162 157 170 214 14 87 -27 170 -99 205 -43 21 -144 26 -197 10z"/>
 <path d="M1480 952 c24 -11 43 -33 60 -67 47 -92 239 -509 252 -548 l13 -37 85 187 c181 404 206 452 242 468 31 13 28 14 -72 13 -58 0 -97 -2 -88 -5 32 -8 32 -50 1 -131 l-30 -77 -144 -3 -144 -2 -32 80 c-39 95 -40 104 -11 124 21 15 16 16 -72 16 l-95 0 35 -18z m440 -239 c0 -13 -115 -293 -120 -293 -3 0 -26 51 -52 113 -26 61 -54 129 -63 150 l-15 37 125 0 c69 0 125 -3 125 -7z"/>
 <path d="M2331 959 c46 -17 50 -43 47 -339 l-3 -275 -100 -3 c-115 -2 -147 8 -156 53 -5 22 -7 13 -8 -31 l-1 -62 45 10 c25 5 158 8 295 6 l250 -3 0 34 c0 34 0 34 -21 15 -17 -16 -40 -20 -130 -22 l-109 -4 0 295 c0 267 2 295 18 309 9 9 24 18 32 21 8 3 -30 5 -85 5 -76 0 -94 -2 -74 -9z"/>
 <path d="M2970 963 c8 -3 23 -12 33 -21 15 -14 17 -42 17 -309 l0 -293 -94 0 c-107 0 -143 10 -156 42 -7 18 -9 13 -9 -28 l-1 -52 38 9 c50 12 479 11 520 0 l32 -10 0 46 0 45 -19 -23 c-18 -22 -28 -24 -130 -27 l-111 -4 0 295 c0 267 2 295 18 309 9 9 24 18 32 21 8 3 -30 5 -85 5 -55 0 -93 -2 -85 -5z"/>
 <path d="M3315 963 c47 -12 55 -26 243 -428 36 -77 73 -160 83 -185 l17 -45 42 90 c23 50 87 191 143 315 94 207 105 226 137 242 l35 18 -105 -1 c-68 0 -98 -3 -84 -9 35 -14 35 -37 1 -123 l-33 -82 -144 0 -143 0 -34 79 c-36 84 -36 112 0 126 15 6 -12 9 -78 8 -55 0 -91 -3 -80 -5z m403 -393 c-34 -83 -65 -147 -69 -143 -4 5 -33 69 -64 143 -32 74 -59 138 -62 143 -2 4 54 7 126 7 l130 0 -61 -150z"/>
 </g>

</svg>