<svg version="1" xmlns="http://www.w3.org/2000/svg" width="400" height="400" viewBox="0 0 300.000000 300.000000"><path d="M11.4 11.4c.1 2.8-.3 5.4-.9 5.8-.6.5-.5.8.3.8 1 0 1 .5.1 2.1-.6 1.2-.7 1.9-.1 1.5.6-.3.9.5.8 1.9 0 1.4-.5 2.5-1.1 2.5-.6 0-.6.3.1.8 1.3.9 1.2 13.4-.1 14.4-.6.5-.3.8.7.8.9 0 1.9.6 2.1 1.2.3.7.6.8.6.2.1-1.1 5.2-1.1 7 0 .5.4 1.3.2 1.6-.4.5-.8 1.2-.7 2.3.2 1.3 1.1 1.4 1.1.8-.1-1.5-2.5 3.6-.1 7.3 3.5 3.6 3.4 6.1 3.2 4.3-.2-1.3-2.6-.5-4.3 2.7-5.6 3.5-1.5 6.4-1.6 7.4-.3.5.7.9.7 1.5 0 .4-.6 1.8-1.1 3.2-1.1 1.4-.1 4.5-.4 7-.7 2.5-.3 6.1-.2 8 .2 3.1.6 3.5 1 3.4 3.9 0 2.1.5 3.2 1.4 3.2.7 0 1.1.4.8.9-.4.5 1.3.8 3.6.7 2.4-.1 5.2.2 6.3.7 1.1.6 4.1 1 6.7 1 2.7-.1 4.8.2 4.8.6 0 .3 1.2.7 2.8.7 5.3.3 8.2.8 8.3 1.6.1.4.3 1.2.4 1.8.1.5.3 1.2.4 1.5 0 .3.9-.3 1.9-1.3 1.4-1.4 3.2-1.9 6.5-1.7 2.6.1 4.7-.3 4.7-.8s.7-.7 1.4-.4c1.8.7 2.5-1.3 2.4-6.5 0-2.6-.4-3.6-1.1-3.1-.9.5-.9.3-.1-.8 1.5-1.8 1.5-7.1.1-6.2-.6.4-.7.1-.1-.8 1.3-2.1 1.3-15.3 0-16.1-.8-.5-.7-.8.2-.8.6 0 1.2-.4 1.2-.8 0-.5-2.1-.9-4.6-1.1-3.5-.1-4.4.1-3.8 1.1.5 1 .4 1.1-.7 0-1.6-1.5-6.3-1.6-5.4-.1.4.6-.3.5-1.4-.3-1.8-1.1-2.3-1.1-3.1.2-.6 1-1 1.1-1 .2 0-.6-1.1-1.2-2.5-1.2s-2.5.6-2.5 1.2c0 .9-.4.8-1-.2-.8-1.2-1-1.2-1-.1 0 .8-.3 1.1-.6.8-.4-.3-1.5-.2-2.5.4-1.3.7-1.9.6-1.9-.1s-.6-.8-1.9 0c-1.1.5-2.1.6-2.3.2-.2-.4-2.7-.4-5.6.1-3.3.5-5 1.2-4.6 1.9.5.7.2.8-.5.4-.7-.5-1-1-.7-1.3.3-.3-.1-2.1-.9-3.9-.9-2.1-1-3.6-.4-4 1.4-.8-1.1-3.6-2.7-3-.7.3-1.6.1-1.9-.4-.4-.6-1.4-.7-2.3-.2-.9.4-2.8.7-4.2.6-10.1-.9-21.8-.9-21.3-.1.4.6.1.7-.6.3-1.8-1.2-24-1.3-23.4-.2.4.5.1.6-.6.2-.7-.5-2.2-.9-3.5-1-2-.3-2.2.1-2.2 4.8z"/><path d="M56.3 53.6c-2.9.6-5.6 1.1-5.8 1.3-.3.1-1.2.4-2 .6-.8.3-2.3.8-3.2 1.2-1 .3-2 .7-2.3.8-3.8 1.3-8 3.8-8 4.6 0 .5-.3.8-.8.5-.4-.2-1.6.2-2.7 1-1 .8-1.6 1.4-1.3 1.4.3 0-.8 1.5-2.6 3.3-1.7 1.8-3.8 4.2-4.6 5.2-2 2.5-6.3 11.6-6.3 13.2 0 .7-.3 1.3-.6 1.3-.4 0-.8 1.2-.9 2.7-.1 1.6-.6 2.9-1.1 3.1-.5.2-.7 1.4-.5 2.8.2 1.3 0 2.4-.5 2.4s-.8 1.1-.6 2.5c.1 1.4-.2 2.5-.7 2.5-.5 0-.5.7 0 1.6.6 1 .6 3.3 0 5.8-.5 2.2-.7 4.9-.5 5.8.3 1 .1 1.8-.3 1.8-.5 0-.5 1.2 0 2.7.6 1.6 1.2 5.7 1.4 9.3.2 3.6 1 8.7 1.8 11.5.8 2.7 1.7 5.7 1.9 6.5.2.8.7 1.7 1.1 2 .4.3.9 1.6 1.1 2.8.2 1.2.9 2.8 1.5 3.4.7.7 1.2 1.7 1.2 2.3 0 .6 1.3 2.6 3 4.5 1.6 1.8 2.7 3.8 2.3 4.4-.3.6-.3.8.1.5.4-.4 3.8 2.5 7.7 6.4 3.8 3.9 6.9 6.7 6.9 6.3 0-.5.8.1 1.9 1.2 1 1.2 2.4 2.2 3 2.2.7 0 .9.4.6 1-.3.5 0 1 .8 1 1.6 0 5.6 4 5.5 5.5-.2 1.2-3 4.1-3.6 3.7-.3-.2-.8.2-1.2.8-.9 1.5-10.6 1.7-16.5.5-2.2-.5-4.6-.7-5.2-.6-.7.1-1.3-.3-1.3-.9 0-.5-.7-1-1.5-1s-1.5-.5-1.5-1.1c0-.5-.4-.8-.9-.4-.5.3-2.1-.5-3.4-1.7-3.2-3-6.9-5.8-7.8-5.8-1.8 0-3.5 11.5-1.8 12.6.3.2.7 4.6.8 9.8.1 5.2.5 10.5.8 11.8.3 1.3.6 3.2.8 4.3.2 2.3 1.6 11.1 2.1 13.7.8 4.6 6.1 9.9 12.4 12.4 2.2.9 4 2 4 2.6 0 .5.6.8 1.3.6.6-.1 2.3.4 3.7 1.2 2.6 1.5 3.5 1.7 8.5 2.5 1.7.2 4.4.8 6 1.3 3.7.9 15.7.8 21-.4 2.2-.4 4.3-.7 4.8-.6.4.1.7-.3.7-.9 0-.6.6-.9 1.4-.6.7.3 2.4-.2 3.7-1.1 1.3-.9 3-1.7 3.8-1.9.8-.1 1.8-.8 2.2-1.5.5-.7.9-.9.9-.4 0 .6 1.4-.3 3-1.9 1.7-1.6 3-2.5 3-2.2 0 .4 1.5-.9 3.2-2.9 1.8-2 4.1-4.5 5.1-5.5.9-1.1 1.5-1.9 1.3-1.9-.3 0 1-2.3 2.9-5.2 1.9-2.8 3.2-5.5 2.9-6-.3-.4 0-.8.5-.8.6 0 1-.3.9-.7-.2-1 1.3-6.4 2.1-7.8.7-1.2.7-1.3 2.1-9.5.7-3.6 1.3-9 1.4-12 .1-3 .5-6.1.9-6.8.5-.6.5-1.8.1-2.4-.5-.7-.8-3.1-.9-5.3 0-2.2-.4-4.6-.8-5.3-.5-.7-.3-1.2.5-1.2.9 0 .9-.3-.2-1-.8-.5-1.1-1-.6-1 .5 0 .3-.6-.3-1.3-.6-.8-1.2-2.2-1.5-3.3-.9-4-1.9-6.4-2.7-6.4-.5 0-.9-.7-.9-1.5s-.4-1.5-1-1.5c-.5 0-.9-.3-.8-.8.8-2.7-12.7-18.3-17-19.6-1.2-.4-2.2-1.2-2.2-1.7s-.7-.9-1.5-.9-1.5-.3-1.5-.8c0-.4-1.8-1.8-4-3.2-2.2-1.3-4-3.1-4-3.9 0-.8-.3-1.1-.7-.8-.8.8-4.3-4.8-4.3-6.8 0-.8.6-1.5 1.3-1.5.8 0 .7-.4-.3-1-1.2-.7-.8-1.1 1.7-1.6 2.1-.4 3-1.1 2.6-1.8-.4-.6 0-.6.9.2 1.3 1 1.7 1 2.2-.3.3-.9 1.1-1.3 1.6-1 .6.4 1.6.2 2.3-.3 1-.9 6.7-.9 18-.2 1.5.2 2.7.6 2.7 1.1 0 .4 1.8.7 4.1.7 3.6 0 4.3-.4 5.4-3.2.7-1.7 1.1-3.4.8-3.9-.2-.4 0-1.3.5-2 1.2-1.5 1-25.7-.2-27.6-.6-1-.6-1.2.2-.7.7.4 1.2.1 1.2-.9s-.5-1.3-1.2-.9c-1 .6-1 .4 0-.8.8-1 .9-1.9.3-2.2-.5-.4-.9-1.9-.7-3.4.1-1.6-.5-3.4-1.7-4.4-1-.9-1.8-1.9-1.8-2.2.1-.3-.1-.5-.2-.4-.2.2-1.1-.3-2-1.1-1-.7-1.7-1-1.7-.5s-.4.3-.9-.5c-1.4-2.1-4.1-2.3-3.4-.3.5 1.5.4 1.5-.8 0-.8-1-2.9-1.9-4.6-2-1.8-.1-3.3-.6-3.3-1.1 0-.4-.5-.5-1-.2-.6.4-1.7.1-2.5-.5-.8-.7-1.5-.9-1.5-.5s-.6.2-1.4-.4c-1-.9-1.6-.9-2.1-.1s-1.1.8-2.1-.1c-1.8-1.5-21-1.7-28.1-.3zM140 59.5c-2.3.6-3.8 1.3-3.4 1.8.4.4.3.7-.3.7s-1.4 1-1.8 2.2c-.9 3.2-1.2 10.8-.4 10.8.4 0 .6 5.7.3 12.7-.8 28-.9 57.3 0 57.3.5 0 .4.6-.1 1.2-1.2 1.6-1 88.8.2 90.7.5 1 .4 1.2-.3.7-1.5-.9-1.5-.5-.2 2.9.5 1.4.6 2.4.1 2.1-.4-.3-.3 1.2.2 3.4 1 3.7 3.8 6 7.2 6 .8 0 1.5.3 1.5.7 0 1 5.2.9 6.8-.1.7-.4 1.2-.4 1.2.1 0 .9 8.9.9 14-.1 1.9-.4 6.2-.8 9.6-1 3.3-.1 6.6-.6 7.2-1 .7-.4 1.2-2.9 1.2-5.5s.3-5.1.7-5.5c.9-.8 1.2-4.6.3-4.6-.3 0-.6-.9-.6-2s.3-2 .6-2c.4 0 .7-.7.7-1.5s-.5-1.5-1.1-1.5c-.7 0-.7-.3-.1-.8 1.5-1.1 1.7-3.2.4-4.8-.6-.8-.7-1.4-.2-1.4.5 0 .9-.9.9-2s-.4-2-.9-2c-.4 0-.5-.5-.1-1.2 1.1-1.7 1.1-8.8 0-8.8-.5 0-.4-.6.1-1.2 1.1-1.5 1.1-8.8 0-10.6-.5-.6-.4-1.2.1-1.2 1.1 0 1-4-.1-5.8-.5-.6-.4-1.2.1-1.2.6 0 .8-.8.5-1.9-.8-3 1.4-3.4 2.3-.3.4 1.5.9 3.1.9 3.7.1.5.5 1.7.8 2.5.3.8.8 2.6 1 4 .3 1.4 1.1 4.3 1.7 6.5.6 2.2 1.3 4.7 1.5 5.5.2.8.4 1.5.5 1.5.1 0 .3.7.5 1.5s.8 3 1.4 4.7c.5 1.8.7 3.3.4 3.3-.3 0 0 .7.7 1.5.6.8.9 1.8.6 2.4-.3.5-.2 1.1.4 1.3.6.2 1.2 1.2 1.5 2.3 1 4.7 2.5 8.6 3.7 9.8.8.8 4 1.3 8 1.4 5.8.1 6.9-.2 8.7-2.3 1.2-1.3 2.1-2.8 2.1-3.3s.7-1.4 1.5-2.1c.9-.7 1.3-1.5 1.1-1.8-.3-.2.2-1.8 1-3.4.9-1.7 1.7-3.9 2-4.9.2-1 .6-2.8.8-3.8.3-1.1.9-2.8 1.4-3.8.5-1 .7-2.4.5-3.1-.3-.6-.1-1.2.5-1.2.5 0 .9-1.6 1-3.5.1-2 .5-4.1.9-4.8.4-.6.8-1.8.9-2.7.9-7.7 3-14.7 4.1-13.7.3.4.7 11.1.8 23.9.1 12.8.3 23.3.5 23.3.1 0 .3 4.4.4 9.8.2 11.2.7 12 8.1 12.3 2.2.1 6.3.5 9 1 6.9 1.1 23 .8 25.3-.5 1.1-.6 2.2-.7 2.6-.4.3.3.6.1.6-.5 0-.7.6-1.2 1.3-1.2.9 0 1.2-8.2 1.4-37.8.1-37.3.2-39.6 1.6-41.8.3-.6.3-1.4 0-1.8-1-1-1-11.6 0-11.6.4 0 .5-.5.1-1.2-1-1.7-1.1-11.8-.1-11.8.6 0 .6-.5 0-1.3-1-1.5-1-12.7 0-14.5.5-.6.5-1.2 0-1.2-.4 0-.7-2.4-.5-5.2.3-6.4.3-6.3-.1-11.3-.2-2.2.1-4.6.6-5.3.5-.6.6-1.2.1-1.2-1.1 0-1.1-9-.1-10.7.4-.6.4-1.4-.1-1.7-.9-.5-.9-7.3 0-8.2.4-.3.3-1.6-.1-2.8-.5-1.1-.6-3.3-.4-4.9.2-1.5 0-2.7-.5-2.7s-.8-3.2-.7-7c.2-6.5 0-7-1.9-7.1-1.2-.1-13-.1-26.3-.2-26.6 0-26.8 0-27.9 5.9-.3 1.9-1 3.4-1.4 3.4-.5 0-1.1 1.8-1.5 4-.4 2.2-1.5 6.2-2.4 8.8-1 2.6-1.7 5.6-1.5 6.5.1.9-.1 1.7-.5 1.7s-.8 1.2-.9 2.7c-.1 1.5-.6 2.9-1 3.2-.4.3-.7 1.3-.7 2.1.1.8-.3 2.1-.8 2.7-.5.7-.7 1.3-.3 1.3.3 0 .1 1.1-.4 2.5s-1.2 3.6-1.5 4.8c-.2 1.2-.9 4.2-1.6 6.7-.6 2.5-1.3 5.6-1.5 6.9-.3 1.3-1.4 4.2-2.6 6.4l-2 4.1-1.4-2.5c-.7-1.3-1.3-3.4-1.4-4.7 0-1.2-.5-2.2-1-2.2-.6 0-.8-1.1-.6-2.4.2-1.4-.1-2.7-.7-3-.8-.3-.7-.5.2-.5 1-.1 1.1-.4.2-1.5-.7-.8-1.4-2.5-1.7-3.7-.3-1.3-.6-2.9-.7-3.4-.2-.6-.6-1.5-1-2.2-.4-.7-.8-2.8-.9-4.8-.1-1.9-.4-3.5-.8-3.5-.3 0-.7-1-.7-2.3-.2-2.6-1.2-7.6-2-9.7-.9-2.2-.9-2.2-1.7-6.5-.4-2.2-1.4-6.5-2.3-9.5-.9-3-1.6-5.6-1.4-5.8.1-.1-.5-.9-1.3-1.7-.8-.8-1.6-2-1.8-2.7-.6-1.6-42.5-1.8-48.8-.3z"/></svg>