<!DOCTYPE svg PUBLIC "-//W3C//DTD SVG 20010904//EN" "http://www.w3.org/TR/2001/REC-SVG-20010904/DTD/svg10.dtd">
<svg version="1.0" xmlns="http://www.w3.org/2000/svg" width="1018px" height="165px" viewBox="0 0 10180 1650" preserveAspectRatio="xMidYMid meet">
<g id="layer101" fill="#3a3a3a" stroke="none">
<path d="M1527 1596 c-48 -18 -50 -20 -42 -46 5 -17 12 -20 28 -16 44 13 112 17 126 7 25 -17 4 -37 -57 -54 -33 -9 -67 -24 -76 -32 -65 -66 15 -156 123 -140 70 11 83 20 69 51 -8 17 -17 23 -27 18 -39 -16 -97 -16 -110 -1 -19 24 -8 33 64 53 71 18 95 41 95 84 -1 47 -36 74 -110 84 -28 4 -59 1 -83 -8z"/>
<path d="M7414 1600 c-75 -23 -122 -104 -102 -177 19 -70 108 -123 181 -108 80 17 127 71 127 145 0 23 -7 54 -15 70 -29 56 -123 90 -191 70z m85 -61 c37 -13 51 -35 51 -81 -1 -41 -18 -65 -59 -79 -60 -21 -111 21 -111 89 1 33 19 58 51 71 32 13 31 13 68 0z"/>
<path d="M8555 1596 c-16 -7 -43 -28 -60 -45 -26 -28 -30 -40 -30 -91 0 -53 3 -62 34 -94 59 -61 177 -70 224 -18 16 18 16 20 -1 36 -17 15 -22 15 -56 1 -73 -31 -144 14 -132 84 7 43 29 68 70 75 53 10 66 0 66 -50 0 -44 0 -44 35 -44 l35 0 0 60 c0 56 -2 60 -31 75 -43 23 -118 28 -154 11z"/>
<path d="M1980 1595 c0 -3 28 -66 62 -140 l61 -135 37 0 36 0 59 131 c33 72 62 135 63 140 2 5 -13 9 -33 9 -32 0 -38 -4 -48 -30 -11 -29 -13 -30 -78 -30 -65 0 -67 1 -78 30 -8 26 -15 30 -45 30 -20 0 -36 -2 -36 -5z m200 -110 c0 -3 -10 -25 -22 -48 l-21 -42 -18 40 c-24 55 -24 55 21 55 22 0 40 -2 40 -5z"/>
<path d="M2628 1488 c-2 -81 -7 -113 -15 -114 -7 -1 -29 -2 -48 -3 -30 -1 -35 -4 -35 -26 l0 -25 130 0 130 0 0 25 c0 23 -4 25 -45 25 l-45 0 0 115 0 115 -35 0 -34 0 -3 -112z"/>
<path d="M3138 1488 c-3 -124 3 -114 -70 -117 -23 -1 -28 -6 -28 -26 l0 -25 130 0 130 0 0 25 c0 19 -5 25 -22 25 -13 0 -33 3 -45 6 -22 6 -23 11 -23 115 l0 109 -35 0 -34 0 -3 -112z"/>
<path d="M3559 1538 c16 -35 45 -98 64 -141 l36 -78 37 3 37 3 63 138 62 137 -38 0 c-32 0 -39 -4 -50 -30 -12 -29 -15 -30 -77 -30 -63 0 -65 1 -76 30 -10 26 -16 30 -49 30 l-37 0 28 -62z m171 -57 c0 -5 -8 -27 -19 -50 l-18 -42 -21 51 -21 50 40 0 c21 0 39 -4 39 -9z"/>
<path d="M4140 1460 l0 -140 28 0 c24 0 34 11 76 80 27 44 52 80 57 80 4 0 29 -36 56 -80 41 -69 52 -80 75 -80 27 0 28 2 28 48 0 27 3 90 6 140 l7 92 -37 0 -36 0 0 -82 0 -83 -41 68 c-27 43 -48 67 -60 67 -11 0 -32 -23 -56 -62 l-38 -63 -3 78 -3 77 -29 0 -30 0 0 -140z"/>
<path d="M4805 1463 c63 -138 64 -138 100 -141 l36 -3 48 103 c27 57 56 120 64 141 l16 37 -37 0 c-33 0 -39 -4 -49 -30 -11 -29 -13 -30 -78 -30 -64 0 -66 1 -76 30 -10 26 -16 30 -49 30 l-38 0 63 -137z m123 -23 l-21 -51 -18 42 c-26 56 -25 59 20 59 l40 0 -21 -50z"/>
<path d="M5390 1485 l0 -115 -45 0 c-41 0 -45 -2 -45 -25 l0 -25 130 0 130 0 0 25 c0 22 -5 25 -35 26 -19 1 -41 2 -47 3 -9 1 -14 33 -16 114 l-3 112 -34 0 -35 0 0 -115z"/>
<path d="M5840 1460 l0 -140 35 0 35 0 0 62 0 62 63 -62 c55 -55 67 -62 102 -62 l39 0 -57 58 c-31 32 -57 62 -57 67 0 4 27 41 60 82 l60 73 -44 0 c-34 0 -47 -5 -60 -22 -8 -13 -27 -36 -40 -53 -25 -28 -25 -29 -45 -10 -13 11 -21 31 -21 52 0 31 -2 33 -35 33 l-35 0 0 -140z"/>
<path d="M6350 1595 c0 -3 28 -66 62 -140 l61 -135 37 0 36 0 59 131 c33 72 62 135 63 140 2 5 -13 9 -33 9 -32 0 -38 -4 -48 -30 -11 -29 -13 -30 -78 -30 -65 0 -67 1 -79 30 -10 25 -18 30 -46 30 -19 0 -34 -2 -34 -5z m200 -110 c0 -3 -10 -25 -22 -48 l-21 -42 -18 40 c-24 55 -24 55 21 55 22 0 40 -2 40 -5z"/>
<path d="M6950 1581 c-14 -28 21 -71 46 -55 30 18 39 40 25 58 -18 22 -58 20 -71 -3z"/>
<path d="M7920 1460 l0 -140 89 0 c75 0 93 3 121 23 55 37 62 103 15 147 l-24 23 30 43 30 44 -38 0 c-32 0 -42 -5 -62 -35 -19 -28 -30 -35 -57 -35 -32 0 -34 2 -34 35 0 33 -2 35 -35 35 l-35 0 0 -140z m164 -3 c12 -9 17 -23 14 -42 -3 -28 -7 -30 -51 -35 -26 -4 -50 -4 -52 -1 -3 2 -5 24 -5 48 l0 43 38 0 c21 0 46 -6 56 -13z"/>
<path d="M600 1445 l0 -45 145 0 145 0 0 45 0 45 -145 0 -145 0 0 -45z"/>
<path d="M9270 1445 l0 -45 140 0 140 0 0 45 0 45 -140 0 -140 0 0 -45z"/>
<path d="M9930 1455 c0 -8 7 -15 15 -15 8 0 15 7 15 15 0 8 -7 15 -15 15 -8 0 -15 -7 -15 -15z"/>
<path d="M4669 1026 c-19 -7 -46 -20 -60 -29 -20 -15 -55 -17 -261 -17 l-238 0 0 -29 c0 -17 5 -33 10 -36 6 -4 10 -125 10 -331 l0 -324 130 0 130 0 0 -40 0 -40 145 0 145 0 0 -24 c0 -56 73 -102 135 -85 38 11 75 53 75 85 l0 24 160 0 160 0 0 40 0 40 115 0 115 0 0 130 c0 109 2 130 15 130 13 0 15 -23 15 -144 0 -86 -4 -147 -10 -151 -29 -18 11 -80 47 -73 22 4 39 49 28 74 -4 11 -10 79 -12 153 -4 124 -3 136 16 162 28 37 26 64 -4 94 -16 17 -35 25 -60 25 l-35 0 0 130 c0 80 4 130 10 130 15 0 12 60 -2 61 -7 0 -115 0 -240 1 -179 1 -230 4 -239 14 -32 39 -223 58 -300 30z m244 -67 c74 -20 31 -49 -87 -56 -141 -9 -254 30 -163 56 44 13 204 13 250 0z m-343 -399 l0 -210 -177 0 -178 0 -2 201 c-2 111 0 205 3 210 3 5 84 9 180 9 l174 0 0 -210z m390 0 l0 -210 -175 0 -175 0 0 210 0 210 175 0 175 0 0 -210z m397 0 l1 -210 -179 0 -179 0 0 210 0 210 178 0 178 0 1 -210z"/>
<path d="M4306 628 c12 -42 34 -77 55 -92 21 -14 21 -15 -16 -22 -30 -5 -40 -3 -47 10 -5 9 -18 16 -28 16 -17 0 -20 -7 -20 -54 l0 -54 74 3 c40 1 78 5 84 9 6 3 22 2 35 -3 43 -16 50 7 22 64 -14 27 -25 60 -25 74 0 65 -7 71 -77 71 -62 0 -64 -1 -57 -22z"/>
<path d="M4720 625 c0 -15 15 -41 36 -64 l35 -40 -37 -7 c-29 -5 -39 -3 -46 10 -5 9 -18 16 -29 16 -18 0 -20 -6 -17 -52 l3 -53 58 -2 c32 -1 68 2 80 6 12 5 34 5 49 0 45 -12 52 10 23 72 -14 31 -25 72 -25 97 l0 42 -65 0 c-63 0 -65 -1 -65 -25z"/>
<path d="M5130 634 c0 -21 18 -54 47 -86 l25 -26 -33 -7 c-24 -6 -35 -3 -44 9 -7 9 -22 16 -34 16 -20 0 -22 -4 -19 -52 l3 -53 70 2 c128 3 160 5 167 9 5 3 -3 25 -18 49 -15 26 -28 67 -31 100 l-6 55 -63 0 c-51 0 -64 -3 -64 -16z"/>
<path d="M5896 908 c3 -56 7 -105 10 -110 3 -4 14 -8 25 -8 18 0 19 -8 19 -144 l0 -144 -28 -6 -27 -7 2 -102 2 -102 176 0 177 0 71 136 72 136 70 -136 71 -136 179 -3 180 -2 -2 102 c-2 101 -2 103 -27 112 l-26 10 0 142 c0 140 0 143 23 146 21 3 22 8 25 111 l3 107 -175 0 -176 0 -2 -172 -3 -173 -70 127 -69 126 -71 -124 -70 -124 -3 170 -2 170 -180 0 -179 0 5 -102z"/>
<path d="M6960 885 l0 -125 25 0 c28 0 39 -17 59 -92 8 -29 37 -128 63 -220 l48 -168 191 0 191 0 63 223 c35 122 67 230 72 240 5 9 20 17 33 17 l25 0 0 125 0 125 -134 0 -134 0 -7 -46 c-11 -77 -7 -74 -111 -74 l-93 0 -12 60 -12 60 -133 0 -134 0 0 -125z m434 -192 c-3 -16 -15 -74 -28 -131 l-22 -103 -25 131 -26 130 53 0 c53 0 53 0 48 -27z"/>
<path d="M7852 903 c3 -105 3 -107 28 -113 l25 -6 1 -161 1 -161 -28 10 c-15 5 -35 18 -45 29 -12 13 -30 19 -61 19 l-43 0 0 -120 0 -120 325 0 325 0 0 119 c0 115 -1 119 -22 125 -37 9 -43 8 -83 -24 -21 -16 -46 -30 -56 -30 -18 0 -19 11 -19 159 l0 160 28 3 27 3 3 108 3 107 -206 0 -206 0 3 -107z"/>
<path d="M930 874 l0 -123 28 -3 c26 -3 29 -8 92 -230 36 -125 68 -229 71 -233 3 -3 91 -6 194 -8 l188 -2 67 235 c64 225 68 235 93 238 l26 3 3 120 c3 113 2 119 -17 120 -11 1 -69 2 -128 3 -122 1 -120 2 -132 -74 l-7 -45 -94 -1 -94 -1 -10 36 c-5 20 -10 44 -10 53 0 9 -5 20 -10 23 -6 4 -67 8 -135 9 l-125 3 0 -123z m430 -176 c0 -24 -45 -218 -50 -218 -4 0 -14 42 -24 93 -10 50 -21 102 -23 115 -5 21 -2 22 46 22 33 0 51 -4 51 -12z"/>
<path d="M1814 991 c-2 -2 -4 -49 -4 -103 l0 -98 30 -6 30 -6 0 -159 c0 -122 -3 -159 -13 -159 -15 0 -57 28 -72 48 -7 8 -25 12 -50 10 l-40 -3 2 -115 c2 -63 3 -117 3 -120 0 -3 145 -5 321 -5 l321 0 0 120 -1 120 -36 3 c-28 3 -43 -3 -71 -27 -62 -55 -64 -51 -64 128 l0 159 30 6 30 6 0 100 0 100 -52 1 c-165 4 -360 3 -364 0z"/>
<path d="M2492 892 l3 -107 28 -3 27 -3 0 -160 c0 -120 -3 -159 -12 -159 -19 0 -78 38 -78 50 0 5 -20 10 -45 10 l-45 0 0 -123 0 -124 325 0 325 0 0 124 0 123 -37 0 c-26 0 -45 -8 -63 -25 -14 -13 -37 -26 -50 -27 l-25 -3 2 155 c1 153 2 155 25 160 22 6 23 10 26 108 l3 102 -98 1 c-54 0 -147 3 -206 5 l-108 4 3 -108z"/>
<path d="M3520 975 c-4 -11 -11 -39 -15 -62 l-7 -42 -93 1 -93 2 -12 58 -11 58 -135 0 -134 0 0 -120 0 -120 28 0 c28 0 28 0 96 -237 l69 -238 189 0 c158 0 191 2 197 15 4 8 36 115 71 238 l64 222 28 0 29 0 -3 121 -3 120 -129 2 c-120 2 -129 1 -136 -18z m-85 -372 c-12 -60 -24 -117 -27 -128 -2 -11 -14 30 -26 90 -13 61 -26 118 -28 128 -5 15 2 17 49 17 l55 0 -23 -107z"/>
<path d="M9342 868 c3 -120 3 -122 27 -128 21 -5 28 -20 62 -145 21 -77 50 -184 65 -237 l26 -98 187 0 187 0 64 240 c62 227 66 239 90 242 25 3 25 3 28 126 l3 122 -130 0 -129 0 -7 -42 c-13 -82 -7 -78 -105 -78 -97 0 -94 -2 -105 74 l-7 46 -129 0 -130 0 3 -122z m418 -175 c0 -22 -45 -223 -50 -223 -5 0 -50 202 -50 223 0 4 23 7 50 7 28 0 50 -3 50 -7z"/>
</g>
<g id="layer102" fill="#f2008d" stroke="none">
<path d="M320 1000 c-41 -5 -102 -17 -135 -27 l-60 -19 -3 -97 -3 -97 80 0 c74 0 84 3 124 31 72 50 157 50 170 -1 6 -24 7 -24 -90 -39 -195 -30 -285 -106 -284 -241 0 -106 58 -180 169 -215 117 -37 364 -31 495 13 l52 17 3 93 3 92 -86 0 c-76 0 -90 -3 -118 -24 -74 -56 -166 -48 -167 15 0 13 16 17 79 23 143 12 221 46 268 117 23 36 28 55 31 118 2 64 -1 82 -20 116 -30 51 -88 90 -163 111 -71 19 -240 26 -345 14z"/>
<path d="M8422 893 l3 -108 28 -3 27 -3 0 -144 0 -144 -27 -3 -28 -3 0 -105 0 -105 175 3 175 2 3 133 3 132 55 -125 c31 -69 59 -129 64 -134 5 -4 89 -8 187 -8 l178 1 3 56 3 56 -55 50 c-71 65 -159 176 -153 192 7 19 124 166 169 213 37 39 39 44 36 95 l-3 54 -181 3 -180 3 -60 -137 -59 -138 -3 131 -3 131 -31 6 c-17 3 -98 6 -180 6 l-149 0 3 -107z"/>
</g>


</svg>